HIERARCHY
ROOT Hips
{
	OFFSET 0.000000 0.000000 0.000000
	CHANNELS 6 Xposition Yposition Zposition Xrotation Yrotation Zrotation
	JOINT LeftUpLeg_virtual
	{
		OFFSET 0.000000 0.000000 0.000000
		CHANNELS 3 Xrotation Yrotation Zrotation
		JOINT LeftUpLeg
		{
			OFFSET 11.394100 -6.187798 -0.413800
			CHANNELS 3 Xrotation Yrotation Zrotation
			JOINT LeftLeg
			{
				OFFSET 0.430247 -32.302673 3.732800
				CHANNELS 3 Xrotation Yrotation Zrotation
				JOINT LeftFoot
				{
					OFFSET -0.430247 -48.264931 -6.423300
					CHANNELS 3 Xrotation Yrotation Zrotation
					JOINT LeftToeBase
					{
						OFFSET 4.230900 -16.068199 23.438400
						CHANNELS 3 Xrotation Yrotation Zrotation
						JOINT LeftToe_End
						{
							OFFSET 4.510700 0.695400 19.974600
							CHANNELS 3 Xrotation Yrotation Zrotation
							End Site
							{
								OFFSET 0 0 0
							}
						}
					}
				}
			}
		}
	}
	JOINT RightUpLeg_virtual
	{
		OFFSET 0.000000 0.000000 0.000000
		CHANNELS 3 Xrotation Yrotation Zrotation
		JOINT RightUpLeg
		{
			OFFSET -11.333700 -6.187798 -0.413800
			CHANNELS 3 Xrotation Yrotation Zrotation
			JOINT RightLeg
			{
				OFFSET -0.430392 -32.302628 3.733000
				CHANNELS 3 Xrotation Yrotation Zrotation
				JOINT RightFoot
				{
					OFFSET 0.430392 -48.264973 -6.423500
					CHANNELS 3 Xrotation Yrotation Zrotation
					JOINT RightToeBase
					{
						OFFSET -4.230900 -16.068199 23.438400
						CHANNELS 3 Xrotation Yrotation Zrotation
						JOINT RightToe_End
						{
							OFFSET -4.510700 0.695400 19.974600
							CHANNELS 3 Xrotation Yrotation Zrotation
							End Site
							{
								OFFSET 0 0 0
							}
						}
					}
				}
			}
		}
	}
	JOINT Spine_virtual
	{
		OFFSET 0.000000 0.000000 0.000000
		CHANNELS 3 Xrotation Yrotation Zrotation
		JOINT Spine
		{
			OFFSET -0.002400 12.777504 0.315300
			CHANNELS 3 Xrotation Yrotation Zrotation
			JOINT Spine1
			{
				OFFSET -0.002067 5.816869 0.032633
				CHANNELS 3 Xrotation Yrotation Zrotation
				JOINT Spine1_split
				{
					OFFSET -0.002067 5.816869 0.032633
					CHANNELS 3 Xrotation Yrotation Zrotation
					JOINT Spine2
					{
						OFFSET -0.002067 5.816869 0.032633
						CHANNELS 3 Xrotation Yrotation Zrotation
						JOINT Neck_virtual
						{
							OFFSET 0.000000 0.000000 0.000000
							CHANNELS 3 Xrotation Yrotation Zrotation
							JOINT Neck
							{
								OFFSET -0.003700 21.199493 -0.826900
								CHANNELS 3 Xrotation Yrotation Zrotation
								JOINT Head
								{
									OFFSET 0.000000 20.442200 4.834800
									CHANNELS 3 Xrotation Yrotation Zrotation
									JOINT HeadTop_End
									{
										OFFSET 0.000000 34.668396 4.968400
										CHANNELS 3 Xrotation Yrotation Zrotation
										End Site
										{
											OFFSET 0 0 0
										}
									}
								}
							}
						}
						JOINT LeftShoulder_virtual
						{
							OFFSET 0.000000 0.000000 0.000000
							CHANNELS 3 Xrotation Yrotation Zrotation
							JOINT LeftShoulder
							{
								OFFSET 3.288150 8.794197 -1.372250
								CHANNELS 3 Xrotation Yrotation Zrotation
								JOINT LeftShoulder_split
								{
									OFFSET 3.288150 8.794197 -1.372250
									CHANNELS 3 Xrotation Yrotation Zrotation
									JOINT LeftArm
									{
										OFFSET 11.953299 -2.279007 -0.146200
										CHANNELS 3 Xrotation Yrotation Zrotation
										JOINT LeftForeArm
										{
											OFFSET 18.448900 0.000000 0.000000
											CHANNELS 3 Xrotation Yrotation Zrotation
											JOINT LeftHand
											{
												OFFSET 29.527798 0.000000 0.000000
												CHANNELS 3 Xrotation Yrotation Zrotation
												End Site
												{
													OFFSET 0 0 0
												}
											}
										}
									}
								}
							}
						}
						JOINT RightShoulder_virtual
						{
							OFFSET 0.000000 0.000000 0.000000
							CHANNELS 3 Xrotation Yrotation Zrotation
							JOINT RightShoulder
							{
								OFFSET -3.249400 8.794197 -1.372250
								CHANNELS 3 Xrotation Yrotation Zrotation
								JOINT RightShoulder_split
								{
									OFFSET -3.249400 8.794197 -1.372250
									CHANNELS 3 Xrotation Yrotation Zrotation
									JOINT RightArm
									{
										OFFSET -11.953299 -2.279007 -0.146200
										CHANNELS 3 Xrotation Yrotation Zrotation
										JOINT RightForeArm
										{
											OFFSET -18.448900 0.000000 0.000000
											CHANNELS 3 Xrotation Yrotation Zrotation
											JOINT RightHand
											{
												OFFSET -29.527802 0.000000 0.000000
												CHANNELS 3 Xrotation Yrotation Zrotation
												End Site
												{
													OFFSET 0 0 0
												}
											}
										}
									}
								}
							}
						}
					}
				}
			}
		}
	}
}
MOTION
Frames: 8
Frame Time: 0.03333333
1.359582 79.662849 -8.872021 0.000000 0.000000 0.000000 -0.070386 -38.341421 4.404950 -39.997994 4.838853 19.433329 57.048267 -12.280972 5.990973 -14.724546 -9.381840 -15.257621 0.313879 -3.354665 -1.679783 0.000000 0.000000 0.000000 -0.072560 -36.645273 4.365818 -23.885942 -14.638082 -22.933697 57.626873 11.957933 -9.910394 -26.803433 -26.502787 34.719265 7.959047 18.231824 -28.766069 0.000000 0.000000 0.000000 -1.769637 -34.038644 2.658733 3.218661 6.106468 -1.648786 1.450076 -0.461034 -0.756581 0.035045 -0.053930 0.130045 0.000000 0.000000 0.000000 5.931314 1.943321 0.699242 3.393865 17.078553 -2.243074 -15.698761 6.302983 -27.590037 0.000000 0.000000 0.000000 3.467176 -0.208865 -1.109193 0.990616 9.547016 -5.967949 3.568533 -6.825699 6.290666 -59.045414 4.705095 -56.797114 133.761141 -74.812899 129.394983 0.000000 0.000000 0.000000 3.301116 -0.639907 1.055751 -6.854225 -0.415286 -8.593208 -6.801771 -1.750411 -0.398635 -43.617916 27.585722 94.709466 -146.771271 72.256120 145.350087 0.000000 0.000000 0.000000 
1.363365 79.919044 -7.885254 0.000000 0.000000 0.000000 -0.142668 -38.817959 4.543111 -40.046010 5.852784 19.612466 56.038318 -12.535240 5.887172 -14.104680 -9.544313 -15.391107 -0.671253 -3.299695 -1.178635 0.000000 0.000000 0.000000 -0.078302 -37.407805 4.399157 -25.089168 -15.631487 -23.837775 57.727809 12.034728 -9.394160 -26.504506 -25.129294 31.633577 10.525362 17.820590 -28.424988 0.000000 0.000000 0.000000 -1.169831 -33.619052 3.098156 3.540812 6.228027 -1.932315 1.463800 -0.356410 -0.734760 0.103755 -0.072193 0.115121 0.000000 0.000000 0.000000 5.974012 2.070903 0.553654 3.333530 16.995555 -2.247640 -15.625736 6.431146 -27.366348 0.000000 0.000000 0.000000 3.730128 -0.202929 -0.991559 0.806425 8.242809 -5.272639 3.749331 -6.102200 5.550181 -60.059855 5.526472 -56.217590 130.208595 -75.305964 125.935998 0.000000 0.000000 0.000000 3.472402 -0.538559 1.031659 -6.757739 0.188821 -8.490213 -6.378626 -1.014961 0.138189 -43.923382 27.955513 94.912111 -146.741410 72.589038 145.449944 0.000000 0.000000 0.000000 
1.255990 80.649048 -6.837952 0.000000 0.000000 0.000000 0.321903 -38.882911 5.143446 -40.066774 7.033918 19.502261 54.411097 -12.730903 5.827415 -13.134210 -9.982555 -15.259375 -1.872406 -3.176647 -0.561159 0.000000 0.000000 0.000000 0.397832 -37.922160 4.946314 -28.236478 -15.660587 -25.624727 59.168993 12.716468 -9.019996 -21.307825 -22.051708 31.151632 5.446107 18.928411 -25.988644 0.000000 0.000000 0.000000 -0.526033 -32.433618 3.812933 3.981448 6.424172 -2.405973 1.410852 -0.177944 -0.752283 0.103494 -0.185365 0.101576 0.000000 0.000000 0.000000 6.025559 2.256360 0.418530 3.196120 16.887356 -1.950072 -15.789743 6.050287 -27.185078 0.000000 0.000000 0.000000 3.897399 -0.090153 -0.827725 0.620076 6.616435 -4.240421 4.293937 -5.551307 4.139117 -62.597413 6.440933 -54.381591 129.912903 -75.329057 125.776649 0.000000 0.000000 0.000000 3.532937 -0.442461 0.939500 -6.637075 1.188827 -8.520802 -5.837861 -1.413190 0.379983 -45.241954 28.078932 94.976745 -145.224206 73.470733 144.098208 0.000000 0.000000 0.000000 
0.990512 81.760567 -5.985680 0.000000 0.000000 0.000000 1.227255 -38.104748 5.962318 -39.945292 8.020576 19.047731 52.250015 -12.537569 5.687948 -12.350894 -10.307928 -14.807895 -1.562348 -2.931710 -0.504540 0.000000 0.000000 0.000000 1.424539 -37.502031 5.886085 -31.837243 -14.660451 -27.528330 60.884702 13.680138 -8.888138 -14.966111 -18.559453 30.944199 -4.102213 20.080958 -21.706802 0.000000 0.000000 0.000000 0.294457 -30.773902 4.692667 4.313079 6.623242 -2.944687 1.292425 0.000139 -0.759506 0.020520 -0.343122 0.128526 0.000000 0.000000 0.000000 6.078765 2.445743 0.371430 3.063841 16.812439 -1.433271 -16.274847 5.275237 -27.070304 0.000000 0.000000 0.000000 3.953391 0.078970 -0.580105 0.499191 4.952583 -3.046785 5.077803 -5.359649 2.438637 -66.215406 7.170643 -51.438189 132.775763 -75.025667 128.829648 0.000000 0.000000 0.000000 3.445878 -0.410789 0.837666 -6.474860 2.472500 -8.802631 -5.543002 -2.734559 0.284918 -47.581157 27.710223 95.023504 -141.727368 74.845227 140.727715 0.000000 0.000000 0.000000 
0.499689 83.113258 -5.428768 0.000000 0.000000 0.000000 2.216134 -36.384937 6.653600 -39.859020 8.459684 18.376224 49.633554 -11.861283 5.407655 -11.739366 -10.475744 -14.219323 0.436173 -2.612865 -1.120276 0.000000 0.000000 0.000000 2.531086 -36.324165 6.790372 -34.901317 -13.066056 -28.823549 62.117162 14.071341 -8.728756 -10.350703 -16.292549 28.856255 -11.201049 19.656666 -17.254926 0.000000 0.000000 0.000000 1.412777 -28.818737 5.559614 4.422186 6.763994 -3.417576 1.129905 0.089180 -0.706547 -0.027715 -0.468747 0.147432 0.000000 0.000000 0.000000 6.113131 2.558153 0.462331 3.093320 16.784816 -0.835240 -17.014734 4.352844 -26.973313 0.000000 0.000000 0.000000 3.929623 0.226824 -0.241950 0.512237 3.596819 -1.945340 5.508250 -5.379869 1.060384 -70.386015 7.438142 -47.894851 137.434539 -74.512064 133.724148 0.000000 0.000000 0.000000 3.230489 -0.500353 0.793788 -6.244564 3.938142 -9.313193 -5.555980 -4.014765 0.010292 -50.816734 26.555765 95.156174 -135.897282 76.349063 134.948187 0.000000 0.000000 0.000000 
-0.227938 84.532028 -5.012363 0.000000 0.000000 0.000000 3.028749 -34.109504 7.011268 -39.848266 8.064177 17.814264 46.899354 -11.387953 5.209060 -10.459674 -10.792355 -14.407423 2.095990 -2.323051 -1.612246 0.000000 0.000000 0.000000 3.152904 -34.681894 7.263562 -36.877305 -11.581389 -29.260701 62.675851 13.684634 -8.193458 -7.733821 -16.044876 25.531423 -12.358020 17.887185 -14.080914 0.000000 0.000000 0.000000 2.636867 -26.762537 6.226486 4.264013 6.806318 -3.708384 0.996214 0.004129 -0.595170 0.011630 -0.509977 0.145090 0.000000 0.000000 0.000000 6.115034 2.531890 0.685126 3.385718 16.867036 -0.287616 -17.809923 3.567005 -26.823360 0.000000 0.000000 0.000000 3.848295 0.283888 0.140115 0.658793 2.743214 -1.187403 5.557728 -5.625384 0.112577 -74.252182 7.045818 -44.475245 142.353218 -73.986248 138.947576 0.000000 0.000000 0.000000 2.972373 -0.709561 0.832235 -5.936482 5.448818 -9.968296 -5.660184 -4.695588 -0.279392 -54.540826 24.489884 95.462842 -127.801760 77.602977 126.857363 0.000000 0.000000 0.000000 
-1.187356 85.650833 -4.689514 0.000000 0.000000 0.000000 3.566109 -31.655222 6.945645 -40.042295 7.190494 17.703919 44.608321 -11.145240 4.999988 -8.365878 -11.276024 -15.218582 2.212321 -2.096019 -1.642570 0.000000 0.000000 0.000000 3.336684 -32.669269 7.239485 -37.685565 -10.694753 -29.016392 62.232913 13.015030 -7.496057 -6.649128 -17.331938 23.232555 -10.631820 16.045205 -12.589543 0.000000 0.000000 0.000000 3.799087 -24.770729 6.582458 3.903989 6.779856 -3.761354 0.937208 -0.240186 -0.482706 0.083518 -0.494543 0.122096 0.000000 0.000000 0.000000 6.068209 2.353150 0.990909 3.980963 17.032822 0.110505 -18.440495 2.990441 -26.536333 0.000000 0.000000 0.000000 3.768412 0.213419 0.467730 0.927027 2.476031 -0.890953 5.345816 -6.027505 -0.293031 -77.148619 6.091397 -41.892624 145.957946 -73.722323 142.870687 0.000000 0.000000 0.000000 2.723157 -1.025683 0.902994 -5.587381 6.897930 -10.514847 -5.959265 -4.916522 -0.443614 -58.098853 21.732620 95.706448 -118.031953 78.342188 117.156418 0.000000 0.000000 0.000000 
-2.393538 86.202667 -4.660301 0.000000 0.000000 0.000000 3.725425 -29.271131 6.557641 -40.413092 6.391469 18.162105 43.190940 -10.786723 4.724068 -6.086436 -11.528588 -15.906297 1.329067 -1.942836 -1.490319 0.000000 0.000000 0.000000 3.184564 -30.685800 6.804664 -37.138525 -10.391116 -28.172367 60.195468 12.476890 -7.080804 -6.977343 -19.474775 23.118046 -8.940689 14.898097 -13.128238 0.000000 0.000000 0.000000 4.659107 -23.259839 6.595038 3.524177 6.693590 -3.631443 0.937282 -0.582075 -0.453412 0.136514 -0.460694 0.085047 0.000000 0.000000 0.000000 5.993615 2.053150 1.257181 4.851764 17.249187 0.312133 -18.879801 2.610065 -26.068047 0.000000 0.000000 0.000000 3.696845 0.050651 0.624269 1.270365 2.760984 -1.137543 4.825270 -6.468398 -0.197403 -78.582563 4.768431 -40.674654 147.653021 -73.893050 144.872711 0.000000 0.000000 0.000000 2.534135 -1.380857 0.925962 -5.288136 8.085842 -10.732347 -5.923183 -5.060502 -0.407347 -60.929058 18.842912 95.633242 -107.702453 78.533665 107.019830 0.000000 0.000000 0.000000 
